<svg xmlns="http://www.w3.org/2000/svg" width="72.962" height="109.905" viewBox="0 0 72.962 109.905"><path d="M23.143,88.062a.828.828,0,0,0-.6-.65,1.018,1.018,0,0,0-.971.423,6.72,6.72,0,0,0-1.49,3.592l-.044.343A28.28,28.28,0,0,1,18,100.223a4.266,4.266,0,0,0-.262.783c-.17-.194-.339-.393-.51-.587-.774-.887-1.571-1.806-2.257-2.764a18.759,18.759,0,0,1-1.647-3.045c-.641-1.4-1.268-2.837-1.876-4.225-.375-.854-.749-1.712-1.129-2.567l-.5-1.125q-.913-2.05-1.808-4.085a3.035,3.035,0,0,1-.181-.748c-.012-.093-.029-.188-.047-.278a2.341,2.341,0,0,1-.033-.353,1.182,1.182,0,0,0-.209-.782,5.61,5.61,0,0,1-.957-3.231,12.674,12.674,0,0,0-.223-1.661c-.095-.418-.2-.838-.305-1.254-.207-.829-.422-1.688-.558-2.546-.217-1.346-.327-2.7-.417-3.961l0-.065c-.173-2.082-.353-4.24-.426-6.343-.045-1.157-.014-2.321.018-3.452q.026-.868.037-1.74a.845.845,0,0,1,.023-.164.861.861,0,0,0,.01-.374,7.851,7.851,0,0,1,.334-3.664,17.191,17.191,0,0,0,.374-1.734c.06-.4.115-.807.177-1.214.141-1.022.29-2.074.522-3.078.208-.936.488-1.884.754-2.8.191-.654.393-1.331.565-2.011.23-.9.444-1.8.659-2.7.276-1.151.561-2.336.867-3.5a7.128,7.128,0,0,1,.708-1.7q.88-1.537,1.78-3.053c1-1.7,2.034-3.467,3-5.229a22.778,22.778,0,0,0,1.022-2.218,22.829,22.829,0,0,1,1.006-2.179,14.928,14.928,0,0,1,1.832-2.4l.214-.245c.9-1.042,1.833-2.084,2.74-3.1s1.835-2.052,2.74-3.1c.545-.633,1.061-1.3,1.562-1.94.451-.579.913-1.176,1.394-1.747a8.966,8.966,0,0,1,1.379-1.236c.518-.433,1.042-.866,1.563-1.293.828-.679,1.688-1.381,2.508-2.094a4.828,4.828,0,0,0,.99-1.187,1.152,1.152,0,0,0,.1-1c-.171-.311-.7-.394-.869-.413A4.161,4.161,0,0,0,29.713,2.19c-.233.2-.464.39-.7.565a20.063,20.063,0,0,0-1.7,1.47A19.41,19.41,0,0,1,25.722,5.61a17.226,17.226,0,0,0-3.5,3.891l-.284.39A14.2,14.2,0,0,1,20.6,11.438c-.346.363-.711.737-1.035,1.138-1.348,1.616-2.676,3.274-3.978,4.9-.157.191-.324.38-.5.572a8.4,8.4,0,0,0-1.131,1.478c-.488.855-.914,1.775-1.322,2.667-.165.359-.328.712-.5,1.065-.105.216-.194.446-.285.671a4.439,4.439,0,0,1-.585,1.158,11.044,11.044,0,0,0-1.6,3.028c-.194.489-.4,1-.631,1.469C8.727,30.2,8.4,30.8,8.074,31.41,7.485,32.5,6.879,33.64,6.395,34.8A20.642,20.642,0,0,0,5.5,37.686c-.129.5-.263,1.022-.413,1.522-.1.332-.219.662-.339.991-.144.4-.293.817-.41,1.236-.251.977-.491,2.031-.747,3.325-.174.887-.33,1.788-.48,2.665-.175,1.029-.358,2.088-.571,3.123a44.045,44.045,0,0,0-.771,11.43l.005.219a27.2,27.2,0,0,0,.25,2.882c.054.433.108.861.152,1.292.035.365.076.726.116,1.091.1.89.2,1.813.241,2.721A50.514,50.514,0,0,0,4.7,81.706c.317,1.05.733,2.445,1.081,3.9a13.718,13.718,0,0,0,1.9,4l.359.579a14.583,14.583,0,0,1,.894,1.862c.217.514.441,1.041.71,1.542.632,1.161,1.294,2.325,1.936,3.446.516.9,1.031,1.8,1.535,2.713.177.307.347.623.51.943.249.475.5.962.8,1.423.053.078.12.144.175.217-.312-.1-.618-.2-.93-.3-1.028-.334-2.09-.677-3.113-1.047-1.88-.691-3.777-1.433-5.618-2.15L4.861,98.8c-.269-.1-.541-.235-.807-.365a7.933,7.933,0,0,0-1.209-.5,2.283,2.283,0,0,0-1.669.024c-.638.385-.3,1-.06,1.452l.067.124a2.825,2.825,0,0,0,1.808,1.354c1.041.4,2.081.85,3.088,1.28,1.13.483,2.294.981,3.467,1.423,1.851.7,3.75,1.356,5.585,2l2.363.825c.058.021.117.037.176.053a1.251,1.251,0,0,0,1.592-.707c.1-.2.194-.41.291-.612a13.651,13.651,0,0,0,1.054-2.633c.944-3.845,1.837-7.777,2.731-12.028A5.589,5.589,0,0,0,23.143,88.062Z" transform="matrix(0.914, 0.407, -0.407, 0.914, 42.591, -1.083)"/></svg>