<?xml version="1.0" encoding="UTF-8" standalone="no"?>
<svg
   xmlns:dc="http://purl.org/dc/elements/1.1/"
   xmlns:cc="http://creativecommons.org/ns#"
   xmlns:rdf="http://www.w3.org/1999/02/22-rdf-syntax-ns#"
   xmlns:svg="http://www.w3.org/2000/svg"
   xmlns="http://www.w3.org/2000/svg"
   id="svg1041"
   version="1.1"
   viewBox="0 0 51.397915 11.1125"
   height="11.1125mm"
   width="51.397915mm">
  <defs
     id="defs1035" />
  <metadata
     id="metadata1038">
    <rdf:RDF>
      <cc:Work
         rdf:about="">
        <dc:format>image/svg+xml</dc:format>
        <dc:type
           rdf:resource="http://purl.org/dc/dcmitype/StillImage" />
        <dc:title></dc:title>
      </cc:Work>
    </rdf:RDF>
  </metadata>
  <g
     id="g921">
    <path
       id="path22"
       transform="scale(0.26458333)"
       d="M 4.7714844,-0.00195313 V 8.03125 H 0 v 4.277344 h 4.7714844 v 23.210937 c 0,2.155843 0.59773,3.815859 1.7949218,4.984375 0.508955,0.519383 1.1710312,0.929933 1.9863282,1.228516 0.2519055,0.09222 0.513787,0.149768 0.7832031,0.189453 0.2142614,0.04989 0.5014015,0.07617 0.8828125,0.07617 h 0.292969 c 0.241247,0.0021 0.487072,0 0.736328,0 h 0.002 22.353516 5.003906 V 25.408203 c 0,-1.680869 0.375541,-3.037115 1.126953,-4.068359 0.750671,-1.031509 1.736526,-1.546875 2.958984,-1.546875 1.094431,0 1.942176,0.332496 2.541016,0.99414 0.597868,0.662514 0.896484,1.603684 0.896484,2.826172 v 11.611328 h 5.003907 v -9.816406 c 0,-1.680869 0.389103,-3.037115 1.166015,-4.068359 0.776425,-1.031509 1.814545,-1.546875 3.113281,-1.546875 1.018394,0 1.813875,0.332496 2.386719,0.99414 0.57309,0.662514 0.859375,1.603684 0.859375,2.826172 V 35.224609 H 63.625 V 22.697266 c 0,-2.315708 -0.579189,-4.155154 -1.736328,-5.517578 0,0 -0.002,-0.002 -0.002,-0.002 -1.158999,-1.36073 -2.846356,-2.042968 -5.060547,-2.042968 -1.502808,0 -2.806514,0.318719 -3.914063,0.955078 -1.107791,0.636737 -1.98118,1.464292 -2.617187,2.482422 -0.433399,-0.993374 -1.159345,-1.813493 -2.177734,-2.462891 -1.018636,-0.649361 -2.214822,-0.974609 -3.589844,-0.974609 -1.273716,0 -2.425523,0.274801 -3.457032,0.822265 -1.031266,0.54807 -1.851661,1.292517 -2.46289,2.234375 h -0.306641 v -2.445312 h -0.03516 c -0.0257,-1.909455 -1.117509,-3.380486 -1.132813,-3.404297 -1.604598,-2.5731781 -4.459491,-4.2851564 -7.714843,-4.2851564 -0.156208,0 -0.310567,0.00416 -0.464844,0.011719 -0.129978,-0.00756 -0.261164,-0.011719 -0.392578,-0.011719 H 16.046875 v 4.2851564 h 5.658203 6.517578 2.390625 c 0.406436,0.100913 0.792556,0.253565 1.152344,0.447265 0.943079,0.508952 1.653261,1.436053 1.837891,3.111329 v 21.8125 H 14.675781 l -0.755859,0.04297 c -1.439403,-0.048 -4.2008917,-0.640636 -4.1445314,-3.101562 V 12.310547 H 9.875 v 0.03125 h 4.400391 V 8.03125 H 9.7753906 V -0.00195313 Z M 75.810547,14.787109 c -1.978231,0 -3.742557,0.443616 -5.294922,1.332032 -1.552607,0.889171 -2.761117,2.10997 -3.625,3.662109 -0.863641,1.552592 -1.294922,3.281169 -1.294922,5.183594 0,1.928466 0.431281,3.661203 1.294922,5.201172 0.863883,1.539741 2.072393,2.753935 3.625,3.642578 1.552365,0.888416 3.316691,1.333984 5.294922,1.333984 1.952969,0 3.704963,-0.445568 5.257812,-1.333984 1.552124,-0.888643 2.761359,-2.102837 3.625,-3.642578 0.863883,-1.539969 1.294922,-3.272706 1.294922,-5.201172 0,-1.902425 -0.431039,-3.631002 -1.294922,-5.183594 -0.863641,-1.552139 -2.072876,-2.772938 -3.625,-3.662109 -1.552849,-0.888416 -3.304843,-1.332032 -5.257812,-1.332032 z m -54.244141,0.0059 c -1.680635,0 -3.234363,0.330203 -4.660156,0.992187 -1.426526,0.662514 -2.610869,1.603948 -3.552734,2.826172 l 3.208984,2.521484 c 0.559725,-0.687533 1.267658,-1.240137 2.121094,-1.660156 0.852948,-0.420283 1.737697,-0.630859 2.654297,-0.630859 1.349514,0 2.424142,0.33043 3.226562,0.992187 0.801933,0.662514 1.203125,1.528013 1.203125,2.597657 v 0.839843 c -1.426284,-0.585562 -3.144978,-0.876953 -5.15625,-0.876953 -1.451546,0 -2.775948,0.265865 -3.972656,0.800781 -1.197188,0.534728 -2.138661,1.299634 -2.826172,2.292969 -0.687519,0.992882 -1.03125,2.138779 -1.03125,3.4375 0,1.961235 0.661834,3.546751 1.986328,4.75586 1.323761,1.209335 3.017303,1.814453 5.080078,1.814453 1.247237,0 2.349703,-0.243123 3.304688,-0.726563 0.954984,-0.483439 1.724584,-1.107062 2.310547,-1.871093 h 0.304687 v 1.986328 h 4.927734 V 22.890625 c 0,-2.648239 -0.777225,-4.660164 -2.330078,-6.035156 -1.553578,-1.375295 -3.819453,-2.0625 -6.798828,-2.0625 z m 54.244141,4.574219 c 0.951099,0 1.827215,0.227063 2.628906,0.677734 0.800961,0.450633 1.440343,1.102126 1.916016,1.953125 0.475408,0.85149 0.71289,1.840082 0.71289,2.966797 0,1.152038 -0.237463,2.152908 -0.71289,3.003906 -0.475673,0.85149 -1.115055,1.502227 -1.916016,1.953125 -0.801691,0.450557 -1.677807,0.675781 -2.628906,0.675781 -0.951825,0 -1.827945,-0.225148 -2.628906,-0.675781 -0.801691,-0.450898 -1.44529,-1.108996 -1.933594,-1.972656 -0.488069,-0.863887 -0.732422,-1.857622 -0.732422,-2.984375 0,-1.126715 0.244364,-2.115307 0.732422,-2.966797 0.488304,-0.850999 1.131903,-1.502492 1.933594,-1.953125 0.800961,-0.450482 1.677081,-0.677734 2.628906,-0.677734 z m -54.128906,6.65625 c 1.426038,0 2.787197,0.30479 4.085937,0.916015 0,1.248 -0.426348,2.33639 -1.279297,3.265625 -0.853436,0.929953 -2.005485,1.394531 -3.457031,1.394531 -1.044386,0 -1.846521,-0.249501 -2.40625,-0.746093 -0.560443,-0.496555 -0.839844,-1.138191 -0.839844,-1.927735 0,-1.93474 1.29925,-2.902343 3.896485,-2.902343 z"
       style="fill:#9d005d;fill-opacity:1;fill-rule:nonzero;stroke:none;stroke-width:0.24293667" />
    <path
       id="path28"
       transform="scale(0.26458333)"
       d="m 90.568359,8.6425781 c -0.43898,0 -0.785191,0.137211 -1.039062,0.4082031 -0.254117,0.2713701 -0.380859,0.603741 -0.380859,0.9960938 -10e-7,0.392844 0.126761,0.720627 0.380859,0.986328 0.253875,0.265777 0.600082,0.398438 1.039062,0.398438 0.438747,0 0.788873,-0.132737 1.048829,-0.398438 0.259691,-0.265512 0.390624,-0.593484 0.390624,-0.986328 10e-7,-0.3923528 -0.130933,-0.7247237 -0.390624,-0.9960938 C 91.357247,8.7796757 91.007106,8.6425781 90.568359,8.6425781 Z M 131.7793,15.119141 c -1.07403,0 -2.05223,0.156939 -2.93555,0.46875 -0.88332,0.311697 -1.64032,0.724454 -2.26953,1.238281 -0.62945,0.514053 -1.11646,1.099456 -1.46289,1.757812 -0.3462,0.65813 -0.51953,1.338692 -0.51953,2.042969 l 2.07812,0.01953 c 0,-0.519647 0.12255,-1.006437 0.3711,-1.46289 0.24828,-0.456 0.59644,-0.858496 1.04101,-1.205078 0.44433,-0.346432 0.97179,-0.617918 1.58399,-0.814454 0.61195,-0.196157 1.28241,-0.292968 2.00976,-0.292968 1.58201,0 2.78559,0.382693 3.61133,1.15039 0.8255,0.768152 1.23828,1.82257 1.23828,3.16211 v 2.130859 h -3.8457 c -1.31648,0 -2.50206,0.135258 -3.5586,0.40625 -1.05653,0.271597 -1.95434,0.664172 -2.69336,1.177735 -0.73901,0.513826 -1.30663,1.137903 -1.69921,1.871093 -0.39258,0.733455 -0.5879,1.55675 -0.5879,2.46875 1e-5,0.762066 0.1445,1.466831 0.4336,2.113281 0.28812,0.646942 0.69498,1.208445 1.2207,1.6875 0.52523,0.47932 1.16141,0.851487 1.90625,1.117188 0.7446,0.265512 1.57191,0.398438 2.48438,0.398438 0.73877,0 1.42527,-0.0808 2.06054,-0.242188 0.63504,-0.161575 1.21894,-0.374924 1.75,-0.640625 0.53106,-0.265512 1.01018,-0.577248 1.4375,-0.935547 0.42709,-0.357808 0.79768,-0.73832 1.10938,-1.142578 0.0231,0.484913 0.0653,0.960093 0.12891,1.427734 0.0632,0.467641 0.15387,0.864351 0.26953,1.1875 l 2.21679,-0.002 V 34 c -0.0926,-0.219137 -0.17294,-0.477059 -0.24218,-0.771484 -0.0693,-0.294426 -0.12994,-0.602632 -0.18164,-0.925782 -0.0522,-0.323338 -0.0902,-0.659654 -0.11329,-1.005859 -0.0231,-0.346696 -0.0352,-0.680379 -0.0352,-1.003906 v -9.076172 c 0,-1.015975 -0.16743,-1.905903 -0.50196,-2.667969 -0.33501,-0.762104 -0.8018,-1.396064 -1.40234,-1.904297 -0.60054,-0.507968 -1.31909,-0.890547 -2.15625,-1.144531 -0.8374,-0.254173 -1.75321,-0.380859 -2.74609,-0.380859 z m -28.3125,0.002 c -0.69286,0 -1.3394,0.0808 -1.93946,0.242187 -0.60078,0.161802 -1.15583,0.389169 -1.664059,0.683594 -0.508221,0.294652 -0.967116,0.65299 -1.376953,1.074219 -0.409833,0.421493 -0.770107,0.886562 -1.082031,1.394531 l -0.07031,-3.048828 -1.990234,0.002 v 18.740234 h 2.078125 V 21.357422 c 0.173212,-0.565569 0.402802,-1.115423 0.691406,-1.646484 0.288609,-0.531062 0.656992,-1.00425 1.101563,-1.419922 0.444574,-0.415673 0.965863,-0.747779 1.566403,-0.996094 0.60029,-0.248315 1.29271,-0.371094 2.07813,-0.371094 0.68143,0 1.30282,0.0808 1.86328,0.242188 0.55997,0.161763 1.04106,0.431334 1.44531,0.8125 0.404,0.381165 0.71592,0.88419 0.93555,1.507812 0.21913,0.623622 0.33007,1.402609 0.33007,2.337891 v 12.384765 h 2.07813 V 21.806641 c 0.0462,-0.542703 0.19681,-1.102214 0.45117,-1.679688 0.25387,-0.577209 0.60822,-1.100454 1.06445,-1.568359 0.456,-0.467414 1.01352,-0.853637 1.67188,-1.160156 0.65787,-0.305689 1.425,-0.465224 2.30273,-0.476563 0.66978,0 1.2855,0.07652 1.84571,0.226563 0.55997,0.15016 1.04106,0.417928 1.44531,0.804687 0.40425,0.386986 0.71592,0.906285 0.93555,1.558594 0.21913,0.652497 0.33007,1.475641 0.33007,2.46875 v 12.228515 h 2.07813 V 21.998047 c 0,-1.212473 -0.13883,-2.251147 -0.41602,-3.117188 -0.27695,-0.866305 -0.6779,-1.580385 -1.20312,-2.140625 -0.52548,-0.55971 -1.1693,-0.968862 -1.93164,-1.228515 -0.7621,-0.260032 -1.62785,-0.390625 -2.59766,-0.390625 -0.75092,0 -1.4512,0.09253 -2.09766,0.277344 -0.64694,0.184629 -1.23825,0.438569 -1.77539,0.761718 -0.53689,0.323339 -1.016,0.707985 -1.4375,1.152344 -0.42149,0.444548 -0.78174,0.925665 -1.08203,1.445312 -0.41566,-1.270072 -1.11448,-2.19401 -2.0957,-2.771484 -0.98146,-0.577323 -2.15915,-0.865234 -3.5332,-0.865234 z m 45.27929,0 c -1.13184,0 -2.14408,0.225375 -3.03906,0.675781 -0.89498,0.450406 -1.65349,1.09053 -2.27734,1.921875 -0.62338,0.831572 -1.10053,1.833941 -1.42969,3.005859 -0.32917,1.171919 -0.49414,2.484524 -0.49414,3.939453 v 0.365235 c 0,1.408819 0.16494,2.694966 0.49414,3.861328 0.32918,1.166324 0.80631,2.168732 1.42969,3.005859 0.62385,0.837166 1.38038,1.489391 2.26953,1.957032 0.88939,0.468019 1.89325,0.701172 3.01367,0.701172 1.3279,-10e-7 2.4713,-0.245595 3.42969,-0.736329 0.95838,-0.490733 1.74967,-1.169077 2.37304,-2.035156 v 2.183594 c 0,0.93532 -0.12499,1.768498 -0.37304,2.501953 -0.24828,0.733153 -0.60855,1.35704 -1.08203,1.871094 -0.47373,0.5136 -1.05541,0.906364 -1.74219,1.177734 -0.68727,0.271106 -1.47413,0.408203 -2.36328,0.408203 -1.01596,0 -1.95223,-0.217483 -2.80664,-0.65039 -0.85441,-0.433172 -1.66174,-1.117415 -2.42383,-2.052735 l -1.16211,1.248047 c 0.38092,0.542476 0.82576,1.011756 1.33398,1.410156 0.50798,0.3984 1.04752,0.730393 1.61914,0.996094 0.5714,0.265399 1.1632,0.464617 1.7754,0.597656 0.61171,0.132284 1.21385,0.199219 1.80273,0.199219 1.14302,0 2.17596,-0.179188 3.09961,-0.537109 0.92389,-0.357846 1.71271,-0.871473 2.36523,-1.541016 0.65228,-0.66977 1.15756,-1.487203 1.51563,-2.451172 0.35786,-0.964233 0.53711,-2.053152 0.53711,-3.265625 V 15.466797 h -1.94141 l -0.10351,2.703125 c -0.62387,-0.958413 -1.41491,-1.707259 -2.37305,-2.244141 -0.95863,-0.536882 -2.10771,-0.804687 -3.44727,-0.804687 z m 18.3711,0 c -1.07402,0 -2.09266,0.225375 -3.05664,0.675781 -0.96422,0.450406 -1.81592,1.088538 -2.55469,1.914063 -0.73902,0.825751 -1.3249,1.824175 -1.75781,2.996093 -0.43316,1.172183 -0.65039,2.48054 -0.65039,3.923828 V 25.375 c 0,1.339805 0.20738,2.569504 0.62304,3.689453 0.41567,1.120177 0.99734,2.086318 1.74219,2.900391 0.74484,0.81411 1.63033,1.450023 2.6582,1.90625 1.02787,0.456189 2.15304,0.683594 3.37696,0.683594 0.84274,0 1.60567,-0.08629 2.28711,-0.259766 0.68119,-0.172951 1.29322,-0.410465 1.83593,-0.710938 0.54273,-0.300019 1.01961,-0.650202 1.42969,-1.054687 0.4096,-0.403994 0.77033,-0.832797 1.08203,-1.283203 l -1.29883,-0.986328 c -0.6931,0.88936 -1.46368,1.535232 -2.3125,1.939453 -0.84882,0.404296 -1.82703,0.605469 -2.93554,0.605469 -0.95863,0 -1.83202,-0.192866 -2.61719,-0.580079 -0.78541,-0.386532 -1.45983,-0.914214 -2.02539,-1.583984 -0.5658,-0.669808 -1.00471,-1.458601 -1.31641,-2.365234 C 161.31524,27.369022 161.1582,26.40288 161.1582,25.375 v -0.398438 h 13.37305 v -1.263671 c 0,-1.247244 -0.16322,-2.396293 -0.48633,-3.447266 -0.32335,-1.050671 -0.79853,-1.956873 -1.42773,-2.71875 -0.62945,-0.762331 -1.40619,-1.35807 -2.33008,-1.785156 -0.92389,-0.427162 -1.98074,-0.640625 -3.16992,-0.640625 z m 15.94531,0 c -1.01621,0 -1.93006,0.135258 -2.74414,0.40625 -0.81408,0.271332 -1.50844,0.638015 -2.08008,1.099609 -0.57163,0.462047 -1.00857,1.005549 -1.31445,1.628906 -0.30634,0.623622 -0.46094,1.281747 -0.46094,1.97461 0,0.762066 0.14473,1.426657 0.43359,1.992187 0.28837,0.56606 0.71323,1.053303 1.27344,1.462891 0.55997,0.410079 1.24647,0.760072 2.06055,1.048828 0.81432,0.288605 1.74197,0.542506 2.78125,0.761719 1.03929,0.219628 1.88458,0.477059 2.53711,0.771484 0.65228,0.294425 1.15977,0.611015 1.52344,0.951172 0.36392,0.340838 0.6132,0.703046 0.74609,1.083984 0.13262,0.381166 0.19922,0.76164 0.19922,1.142578 0,0.438993 -0.10455,0.861367 -0.3125,1.265626 -0.20771,0.404258 -0.51595,0.760454 -0.92578,1.072265 -0.41008,0.311698 -0.91558,0.561275 -1.51563,0.746094 -0.60078,0.184819 -1.2949,0.277344 -2.08008,0.277344 -0.58887,0 -1.18659,-0.06404 -1.79297,-0.191407 -0.60612,-0.126803 -1.15577,-0.338387 -1.65234,-0.632812 -0.49656,-0.294425 -0.91329,-0.686774 -1.24805,-1.177734 -0.33502,-0.490734 -0.52634,-1.104739 -0.57226,-1.84375 h -2.07813 c 0,0.72737 0.15878,1.428151 0.47657,2.103515 0.31751,0.675591 0.78849,1.273322 1.41211,1.792969 0.62361,0.519647 1.3905,0.932517 2.30273,1.238281 0.91223,0.305726 1.96268,0.458985 3.15234,0.458985 1.05071,0 2.00473,-0.126876 2.85938,-0.38086 0.85441,-0.253606 1.5811,-0.608188 2.18164,-1.064453 0.6003,-0.456227 1.06311,-1.005628 1.38672,-1.646484 0.32288,-0.640857 0.48437,-1.347349 0.48437,-2.121094 0,-0.750463 -0.13093,-1.412495 -0.39062,-1.984375 -0.25994,-0.571389 -0.65842,-1.07889 -1.19531,-1.523438 -0.53689,-0.444359 -1.21525,-0.829194 -2.03516,-1.152343 -0.8199,-0.323112 -1.79418,-0.617112 -2.92578,-0.882813 -1.05094,-0.242721 -1.90436,-0.488013 -2.55664,-0.736328 -0.65253,-0.248277 -1.15977,-0.520028 -1.52344,-0.814453 -0.36367,-0.294463 -0.60952,-0.61259 -0.73633,-0.953125 -0.12729,-0.340611 -0.18945,-0.71714 -0.18945,-1.132813 0,-0.392352 0.0824,-0.782671 0.25,-1.169921 0.16714,-0.386495 0.43321,-0.737018 0.79687,-1.048829 0.36368,-0.311697 0.83096,-0.565183 1.40235,-0.761718 0.57187,-0.196158 1.26205,-0.292969 2.07031,-0.292969 0.77375,0 1.46394,0.108912 2.07031,0.328125 0.60613,0.219364 1.11336,0.505548 1.52344,0.857422 0.40959,0.352516 0.72178,0.759109 0.93555,1.220703 0.21354,0.462047 0.32031,0.934782 0.32031,1.419922 h 2.08008 c 0,-0.796838 -0.15705,-1.535122 -0.46875,-2.216797 -0.31193,-0.681184 -0.76491,-1.272978 -1.35938,-1.775391 -0.59495,-0.502375 -1.3214,-0.894648 -2.18164,-1.177734 -0.86024,-0.282671 -1.83448,-0.423828 -2.91992,-0.423828 z m 9.53906,0 c -0.91417,0 -1.6582,0.743822 -1.6582,1.658203 0,0.914192 0.74403,1.658203 1.6582,1.658203 0.91417,0 1.65821,-0.744011 1.65821,-1.658203 0,-0.914381 -0.74404,-1.658203 -1.65821,-1.658203 z m 0,0.238281 c 0.78226,0 1.41992,0.637673 1.41992,1.419922 0,0.782287 -0.63766,1.417969 -1.41992,1.417969 -0.78225,0 -1.41797,-0.635682 -1.41797,-1.417969 0,-0.782249 0.63572,-1.419922 1.41797,-1.419922 z M 89.511719,15.466797 v 18.742187 h 2.080078 V 15.466797 Z m 102.572261,0.523437 v 1.486328 h 0.19727 V 16.8125 h 0.37891 l 0.34961,0.664062 h 0.22265 l -0.36914,-0.693359 c 0.10617,-0.02116 0.18755,-0.06554 0.2461,-0.132812 0.0584,-0.06765 0.0879,-0.15104 0.0879,-0.251953 0,-0.135686 -0.0444,-0.238232 -0.13477,-0.306641 -0.0906,-0.06841 -0.22597,-0.101563 -0.40625,-0.101563 z m 0.19727,0.166016 h 0.36914 c 0.11494,0 0.19973,0.0213 0.25586,0.0625 0.0561,0.0412 0.084,0.102397 0.084,0.185547 0,0.08277 -0.0269,0.144287 -0.082,0.183594 -0.0551,0.04006 -0.14047,0.05859 -0.25586,0.05859 h -0.37109 z m -25.16406,0.730469 c 0.87748,0 1.64633,0.171183 2.30469,0.511719 0.65811,0.340837 1.20947,0.793844 1.65429,1.359374 0.44409,0.56606 0.78068,1.216029 1.01172,1.949219 0.23078,0.733418 0.35743,1.492185 0.38086,2.277344 v 0.224609 h -11.24023 c 0.11539,-0.946733 0.33685,-1.808552 0.66601,-2.58789 0.32894,-0.779603 0.75182,-1.447837 1.26563,-2.001953 0.51381,-0.554155 1.10562,-0.980778 1.77539,-1.28125 0.66977,-0.300359 1.39623,-0.449219 2.18164,-0.449219 z m -17.99024,0.03516 c 0.76234,0 1.43279,0.102483 2.00977,0.304687 0.5777,0.201865 1.08271,0.472343 1.51562,0.8125 0.43291,0.340838 0.80327,0.733678 1.10938,1.177735 0.30561,0.444812 0.5576,0.909656 0.7539,1.394531 v 8.712891 c -0.23103,0.496554 -0.50891,0.953468 -0.83203,1.36914 -0.32359,0.4159 -0.70407,0.776268 -1.14257,1.082032 -0.43899,0.305839 -0.94595,0.545269 -1.51758,0.71875 -0.57139,0.173102 -1.21375,0.259765 -1.92969,0.259765 -0.94697,0 -1.76463,-0.197264 -2.45117,-0.589844 -0.68751,-0.392352 -1.25663,-0.934127 -1.70703,-1.626953 -0.45017,-0.692863 -0.785,-1.510069 -1.00391,-2.451171 -0.21959,-0.940914 -0.32812,-1.95952 -0.32812,-3.056641 V 24.66602 c 0,-1.085443 0.10849,-2.101868 0.32812,-3.048828 0.21889,-0.946734 0.55374,-1.768075 1.00391,-2.460938 0.4504,-0.692863 1.02198,-1.238319 1.71484,-1.636719 0.69286,-0.398211 1.51794,-0.597656 2.47656,-0.597656 z m -16.15234,7.986328 h 3.55078 v 4.121094 c -0.23128,0.519647 -0.5368,1.002944 -0.91797,1.447265 -0.38093,0.444586 -0.83192,0.833103 -1.35156,1.167969 -0.51964,0.335018 -1.09937,0.598575 -1.74024,0.789063 -0.64086,0.190488 -1.33745,0.285156 -2.08789,0.285156 -0.64693,0 -1.23036,-0.09467 -1.75,-0.285156 -0.51964,-0.190451 -0.96077,-0.4501 -1.32421,-0.779297 -0.36392,-0.32897 -0.6438,-0.715571 -0.83985,-1.160156 -0.19653,-0.444586 -0.29492,-0.921493 -0.29492,-1.429688 0,-0.646715 0.15288,-1.226181 0.45898,-1.740234 0.30586,-0.513562 0.74872,-0.950673 1.32618,-1.308594 0.57722,-0.357846 1.28369,-0.631777 2.12109,-0.822266 0.83716,-0.190488 1.78725,-0.285156 2.84961,-0.285156 z"
       style="fill:#4d4d4d;fill-opacity:1;fill-rule:nonzero;stroke:none;stroke-width:0.24293667" />
    <path
       style="opacity:1;fill:#ff8dc8;fill-opacity:1;stroke:none;stroke-width:0.93705982;stroke-linecap:round;stroke-linejoin:round;stroke-miterlimit:4;stroke-dasharray:none;stroke-dashoffset:0;stroke-opacity:1;paint-order:markers stroke fill"
       d="m 40.450762,5.1676564e-4 c -0.267968,0 -0.483693,0.21572516436 -0.483693,0.48369139436 V 2.4024373 c 0,0.2679663 0.215725,0.4836914 0.483693,0.4836914 h 9.335346 c 0.267965,0 0.48369,-0.2157251 0.48369,-0.4836914 V 0.48420816 c 0,-0.26796623 -0.215725,-0.48369139436 -0.48369,-0.48369139436 z M 48.20119,0.58549396 h 0.294558 L 49.114831,2.2468912 H 48.826994 L 48.662145,1.7874878 h -0.633037 l -0.161745,0.4594034 h -0.285255 z m -7.079151,0.006718 h 0.491442 c 0.227891,0 0.39239,0.0333255 0.493509,0.0997355 0.101872,0.066407 0.152963,0.17133147 0.152963,0.31470944 0,0.096591 -0.02511,0.1766722 -0.07493,0.2408122 -0.04981,0.06414 -0.121404,0.1048396 -0.214974,0.1214396 v 0.010852 c 0.116213,0.021886 0.201469,0.065335 0.255799,0.1302246 0.05508,0.06414 0.08268,0.1513058 0.08268,0.2614828 0,0.14866 -0.05192,0.2653294 -0.156062,0.3498494 -0.103383,0.083763 -0.24765,0.1255737 -0.432533,0.1255737 h -0.597894 z m 2.377114,0 h 0.936376 V 0.82062184 H 43.769938 V 1.2712403 h 0.623734 v 0.2263428 h -0.623734 v 0.5198648 h 0.665591 v 0.2294433 h -0.936376 z m 1.955954,0 h 1.243851 V 0.8242392 H 46.212683 V 2.2468914 H 45.941898 V 0.82423909 H 45.455107 Z M 41.392821,0.81855468 V 1.2758911 h 0.260451 c 0.113191,0 0.195458,-0.017757 0.247528,-0.053227 0.05208,-0.03622 0.07803,-0.097421 0.07803,-0.1834514 0,-0.077725 -0.02815,-0.13375513 -0.08475,-0.16846513 -0.05584,-0.03471 -0.144915,-0.0521932 -0.267166,-0.0521932 z m 6.954615,0 c -0.02037,0.092818 -0.05016,0.19419922 -0.0894,0.30437422 l -0.149862,0.4314982 h 0.482658 l -0.15503,-0.4506185 c -0.01132,-0.030187 -0.02717,-0.077737 -0.04754,-0.14262697 -0.01963,-0.064897 -0.03332,-0.11244696 -0.04082,-0.14262695 z M 41.392821,1.4955159 v 0.523999 h 0.287322 c 0.113191,0 0.198448,-0.021585 0.255799,-0.064595 0.0581,-0.043766 0.08733,-0.1120922 0.08733,-0.2056722 0,-0.086026 -0.02951,-0.1502196 -0.08837,-0.1917195 -0.05886,-0.04151 -0.148217,-0.062012 -0.2682,-0.062012 z"
       id="rect835" />
  </g>
</svg>
